<?xml version="1.0" standalone="no"?><!DOCTYPE svg PUBLIC "-//W3C//DTD SVG 1.1//EN" "http://www.w3.org/Graphics/SVG/1.1/DTD/svg11.dtd"><svg t="1547622171209" class="icon" style="" viewBox="0 0 1099 1024" version="1.1" xmlns="http://www.w3.org/2000/svg" p-id="2016" xmlns:xlink="http://www.w3.org/1999/xlink" width="214.6484375" height="200"><defs><style type="text/css"></style></defs><path d="M970.082654 91.395746l-120.356215 0 0 60.174985 120.356215 0 0 782.297288-661.941073 0 0-120.356215c0-33.215063-26.961171-60.176234-60.176234-60.176234l-120.354966 0L127.61038 151.570732l120.354966 0L247.965346 91.395746l-120.354966 0C94.395317 91.395746 67.434146 118.356917 67.434146 151.570732l0 601.766088c0 18.234693 8.122068 34.541268 20.942049 45.555512l0 0.181073L264.092098 974.785561c11.010498 11.794732 26.658966 19.258693 44.049483 19.258693l661.941073 0c33.215063 0 60.176234-26.961171 60.176234-60.176234L1030.258888 151.570732C1030.258888 118.356917 1003.297717 91.395746 970.082654 91.395746L970.082654 91.395746z" p-id="2017"></path><path d="M669.200234 91.395746 428.4928 91.395746 428.4928 151.570732 669.200234 151.570732 669.200234 91.395746Z" p-id="2018"></path><path d="M368.316566 31.219512" p-id="2019"></path><path d="M370.468215 202.462283 370.468215 40.946263c0.058693-0.684332 0.099902-1.37241 0.099902-2.070478 0-15.516098-14.935415-28.095063-33.359922-28.095063-18.425756 0-33.361171 12.578966-33.361171 28.095063 0 0.701815 0.039961 1.396137 0.101151 2.085463l0 161.4848c-0.06119 0.689327-0.101151 1.383649-0.101151 2.084215 0 0.701815 0.039961 1.396137 0.101151 2.085463l0 1.006517 0.103649 0c1.828215 14.061268 15.973151 25.004332 33.156371 25.004332 17.18322 0 31.326907-10.943063 33.155122-25.004332l0.104898 0 0-1.021502c0.058693-0.684332 0.099902-1.373659 0.099902-2.070478C370.568117 203.834693 370.526907 203.146615 370.468215 202.462283z" p-id="2020"></path><path d="M790.682849 202.462283 790.682849 40.946263c0.058693-0.684332 0.099902-1.37241 0.099902-2.070478 0-15.516098-14.936663-28.095063-33.361171-28.095063-18.427005 0-33.361171 12.578966-33.361171 28.095063 0 0.701815 0.038712 1.396137 0.099902 2.085463l0 161.4848c-0.06119 0.689327-0.099902 1.383649-0.099902 2.084215 0 0.701815 0.038712 1.396137 0.099902 2.085463l0 1.006517 0.104898 0c1.826966 14.061268 15.971902 25.004332 33.156371 25.004332 17.18322 0 31.326907-10.943063 33.156371-25.004332l0.104898 0 0-1.021502c0.058693-0.684332 0.099902-1.373659 0.099902-2.070478C790.782751 203.834693 790.741541 203.146615 790.682849 202.462283z" p-id="2021"></path><path d="M822.504273 313.739863c-0.370888 0-0.73678 0.014985-1.103922 0.032468l0-0.032468-536.17639 0 0 0.034966c-0.393366-0.01998-0.789229-0.034966-1.18759-0.034966-14.494595 0-26.24562 13.631688-26.24562 30.446517 0 16.816078 11.751024 30.447766 26.24562 30.447766 0.398361 0 0.792976-0.014985 1.18759-0.034966L285.223961 374.634146l536.17639 0 0-0.032468c0.367141 0.017483 0.733034 0.032468 1.103922 0.032468 14.492098 0 26.244371-13.631688 26.244371-30.447766C848.748644 327.371551 836.99762 313.739863 822.504273 313.739863z" p-id="2022"></path><path d="M822.504273 471.086205c-0.370888 0-0.73678 0.014985-1.103922 0.032468l0-0.032468-536.17639 0 0 0.034966c-0.393366-0.01998-0.789229-0.034966-1.18759-0.034966-14.494595 0-26.24562 13.631688-26.24562 30.446517 0 16.816078 11.751024 30.447766 26.24562 30.447766 0.398361 0 0.792976-0.014985 1.18759-0.033717L285.223961 531.980488l536.17639 0 0-0.03122c0.367141 0.017483 0.733034 0.03122 1.103922 0.03122 14.492098 0 26.244371-13.631688 26.244371-30.447766C848.748644 484.717893 836.99762 471.086205 822.504273 471.086205z" p-id="2023"></path><path d="M825.811044 621.355707c-0.370888 0-0.73678 0.016234-1.103922 0.032468l0-0.032468L288.530732 621.355707l0 0.034966c-0.393366-0.021229-0.789229-0.034966-1.18759-0.034966-14.494595 0-26.24562 13.631688-26.24562 30.447766s11.751024 30.447766 26.24562 30.447766c0.398361 0 0.792976-0.014985 1.18759-0.033717l0 0.033717 536.17639 0 0-0.03122c0.367141 0.017483 0.733034 0.03122 1.103922 0.03122 14.492098 0 26.244371-13.631688 26.244371-30.447766S840.303141 621.355707 825.811044 621.355707z" p-id="2024"></path></svg>